<mxfile host="app.diagrams.net" modified="2022-07-14T21:47:10.581Z" agent="5.0 (Windows NT 10.0; Win64; x64) AppleWebKit/537.36 (KHTML, like Gecko) Chrome/103.0.0.0 Safari/537.36" etag="ChGBUuj5Rv3c6YKJcL0g" version="20.0.4" type="github">
  <diagram id="C5RBs43oDa-KdzZeNtuy" name="Page-1">
    <mxGraphModel dx="1422" dy="762" grid="1" gridSize="10" guides="1" tooltips="1" connect="1" arrows="1" fold="1" page="1" pageScale="1" pageWidth="827" pageHeight="1169" math="0" shadow="0">
      <root>
        <mxCell id="WIyWlLk6GJQsqaUBKTNV-0" />
        <mxCell id="WIyWlLk6GJQsqaUBKTNV-1" parent="WIyWlLk6GJQsqaUBKTNV-0" />
        <mxCell id="Rs4q7yymrEI9bFFTQHx6-0" value="Delson Rocha Vieira de Araujo" style="rounded=0;whiteSpace=wrap;html=1;" vertex="1" parent="WIyWlLk6GJQsqaUBKTNV-1">
          <mxGeometry x="369" y="700" width="181" height="30" as="geometry" />
        </mxCell>
        <mxCell id="Rs4q7yymrEI9bFFTQHx6-2" value="Wilson Vieira de Araujo" style="rounded=0;whiteSpace=wrap;html=1;" vertex="1" parent="WIyWlLk6GJQsqaUBKTNV-1">
          <mxGeometry x="469" y="550" width="180" height="30" as="geometry" />
        </mxCell>
        <mxCell id="Rs4q7yymrEI9bFFTQHx6-5" value="" style="endArrow=none;html=1;rounded=0;exitX=1.007;exitY=0.125;exitDx=0;exitDy=0;exitPerimeter=0;" edge="1" parent="WIyWlLk6GJQsqaUBKTNV-1" source="Rs4q7yymrEI9bFFTQHx6-7" target="Rs4q7yymrEI9bFFTQHx6-2">
          <mxGeometry width="50" height="50" relative="1" as="geometry">
            <mxPoint x="382" y="564" as="sourcePoint" />
            <mxPoint x="469" y="445" as="targetPoint" />
          </mxGeometry>
        </mxCell>
        <mxCell id="Rs4q7yymrEI9bFFTQHx6-6" value="" style="endArrow=none;html=1;rounded=0;" edge="1" parent="WIyWlLk6GJQsqaUBKTNV-1" source="Rs4q7yymrEI9bFFTQHx6-0">
          <mxGeometry width="50" height="50" relative="1" as="geometry">
            <mxPoint x="419" y="495" as="sourcePoint" />
            <mxPoint x="429" y="565" as="targetPoint" />
          </mxGeometry>
        </mxCell>
        <mxCell id="Rs4q7yymrEI9bFFTQHx6-7" value="Debbora Rocha" style="swimlane;fontStyle=0;childLayout=stackLayout;horizontal=1;startSize=30;horizontalStack=0;resizeParent=1;resizeParentMax=0;resizeLast=0;collapsible=1;marginBottom=0;" vertex="1" parent="WIyWlLk6GJQsqaUBKTNV-1">
          <mxGeometry x="240" y="550" width="140" height="120" as="geometry">
            <mxRectangle x="340" y="280" width="60" height="30" as="alternateBounds" />
          </mxGeometry>
        </mxCell>
        <mxCell id="Rs4q7yymrEI9bFFTQHx6-8" value="Nascimento 14.05.1920" style="text;strokeColor=none;fillColor=none;align=left;verticalAlign=middle;spacingLeft=4;spacingRight=4;overflow=hidden;points=[[0,0.5],[1,0.5]];portConstraint=eastwest;rotatable=0;" vertex="1" parent="Rs4q7yymrEI9bFFTQHx6-7">
          <mxGeometry y="30" width="140" height="30" as="geometry" />
        </mxCell>
        <mxCell id="Rs4q7yymrEI9bFFTQHx6-9" value="Casamento 27.05.1944" style="text;strokeColor=none;fillColor=none;align=left;verticalAlign=middle;spacingLeft=4;spacingRight=4;overflow=hidden;points=[[0,0.5],[1,0.5]];portConstraint=eastwest;rotatable=0;" vertex="1" parent="Rs4q7yymrEI9bFFTQHx6-7">
          <mxGeometry y="60" width="140" height="30" as="geometry" />
        </mxCell>
        <mxCell id="Rs4q7yymrEI9bFFTQHx6-10" value="Falecimento 22.12.1991" style="text;strokeColor=none;fillColor=none;align=left;verticalAlign=middle;spacingLeft=4;spacingRight=4;overflow=hidden;points=[[0,0.5],[1,0.5]];portConstraint=eastwest;rotatable=0;" vertex="1" parent="Rs4q7yymrEI9bFFTQHx6-7">
          <mxGeometry y="90" width="140" height="30" as="geometry" />
        </mxCell>
        <mxCell id="Rs4q7yymrEI9bFFTQHx6-11" value="Antonio Augusto Rocha" style="swimlane;fontStyle=0;childLayout=stackLayout;horizontal=1;startSize=30;horizontalStack=0;resizeParent=1;resizeParentMax=0;resizeLast=0;collapsible=1;marginBottom=0;" vertex="1" parent="WIyWlLk6GJQsqaUBKTNV-1">
          <mxGeometry x="40" y="380" width="140" height="120" as="geometry" />
        </mxCell>
        <mxCell id="Rs4q7yymrEI9bFFTQHx6-12" value="Nascimento" style="text;strokeColor=none;fillColor=none;align=left;verticalAlign=middle;spacingLeft=4;spacingRight=4;overflow=hidden;points=[[0,0.5],[1,0.5]];portConstraint=eastwest;rotatable=0;" vertex="1" parent="Rs4q7yymrEI9bFFTQHx6-11">
          <mxGeometry y="30" width="140" height="30" as="geometry" />
        </mxCell>
        <mxCell id="Rs4q7yymrEI9bFFTQHx6-13" value="Casamento 26.05.1900" style="text;strokeColor=none;fillColor=none;align=left;verticalAlign=middle;spacingLeft=4;spacingRight=4;overflow=hidden;points=[[0,0.5],[1,0.5]];portConstraint=eastwest;rotatable=0;" vertex="1" parent="Rs4q7yymrEI9bFFTQHx6-11">
          <mxGeometry y="60" width="140" height="30" as="geometry" />
        </mxCell>
        <mxCell id="Rs4q7yymrEI9bFFTQHx6-14" value="Falecimento" style="text;strokeColor=none;fillColor=none;align=left;verticalAlign=middle;spacingLeft=4;spacingRight=4;overflow=hidden;points=[[0,0.5],[1,0.5]];portConstraint=eastwest;rotatable=0;" vertex="1" parent="Rs4q7yymrEI9bFFTQHx6-11">
          <mxGeometry y="90" width="140" height="30" as="geometry" />
        </mxCell>
        <mxCell id="Rs4q7yymrEI9bFFTQHx6-16" value="Ignacia Mattos da Rocha" style="rounded=0;whiteSpace=wrap;html=1;" vertex="1" parent="WIyWlLk6GJQsqaUBKTNV-1">
          <mxGeometry x="530" y="380" width="180" height="30" as="geometry" />
        </mxCell>
        <mxCell id="Rs4q7yymrEI9bFFTQHx6-18" value="" style="endArrow=none;html=1;rounded=0;exitX=1.021;exitY=0.15;exitDx=0;exitDy=0;exitPerimeter=0;" edge="1" parent="WIyWlLk6GJQsqaUBKTNV-1" source="Rs4q7yymrEI9bFFTQHx6-11" target="Rs4q7yymrEI9bFFTQHx6-16">
          <mxGeometry width="50" height="50" relative="1" as="geometry">
            <mxPoint x="390" y="370" as="sourcePoint" />
            <mxPoint x="440" y="320" as="targetPoint" />
          </mxGeometry>
        </mxCell>
        <mxCell id="Rs4q7yymrEI9bFFTQHx6-19" value="" style="endArrow=none;html=1;rounded=0;" edge="1" parent="WIyWlLk6GJQsqaUBKTNV-1" source="Rs4q7yymrEI9bFFTQHx6-7">
          <mxGeometry width="50" height="50" relative="1" as="geometry">
            <mxPoint x="390" y="370" as="sourcePoint" />
            <mxPoint x="300" y="400" as="targetPoint" />
          </mxGeometry>
        </mxCell>
        <mxCell id="Rs4q7yymrEI9bFFTQHx6-21" value="Pedro Vieira de Araujo" style="rounded=0;whiteSpace=wrap;html=1;" vertex="1" parent="WIyWlLk6GJQsqaUBKTNV-1">
          <mxGeometry x="369" y="460" width="180" height="30" as="geometry" />
        </mxCell>
        <mxCell id="Rs4q7yymrEI9bFFTQHx6-23" value="Julieta de Araujo" style="rounded=0;whiteSpace=wrap;html=1;" vertex="1" parent="WIyWlLk6GJQsqaUBKTNV-1">
          <mxGeometry x="620" y="460" width="130" height="30" as="geometry" />
        </mxCell>
        <mxCell id="Rs4q7yymrEI9bFFTQHx6-24" value="" style="endArrow=none;html=1;rounded=0;" edge="1" parent="WIyWlLk6GJQsqaUBKTNV-1" source="Rs4q7yymrEI9bFFTQHx6-21" target="Rs4q7yymrEI9bFFTQHx6-23">
          <mxGeometry width="50" height="50" relative="1" as="geometry">
            <mxPoint x="390" y="370" as="sourcePoint" />
            <mxPoint x="440" y="320" as="targetPoint" />
          </mxGeometry>
        </mxCell>
        <mxCell id="Rs4q7yymrEI9bFFTQHx6-25" value="" style="endArrow=none;html=1;rounded=0;exitX=0.644;exitY=0;exitDx=0;exitDy=0;exitPerimeter=0;" edge="1" parent="WIyWlLk6GJQsqaUBKTNV-1" source="Rs4q7yymrEI9bFFTQHx6-2">
          <mxGeometry width="50" height="50" relative="1" as="geometry">
            <mxPoint x="390" y="370" as="sourcePoint" />
            <mxPoint x="580" y="480" as="targetPoint" />
          </mxGeometry>
        </mxCell>
        <mxCell id="Rs4q7yymrEI9bFFTQHx6-28" value="Eliane Ribeiro Coutinho Araujo" style="rounded=0;whiteSpace=wrap;html=1;" vertex="1" parent="WIyWlLk6GJQsqaUBKTNV-1">
          <mxGeometry x="590" y="700" width="181" height="30" as="geometry" />
        </mxCell>
        <mxCell id="Rs4q7yymrEI9bFFTQHx6-29" value="" style="endArrow=none;html=1;rounded=0;" edge="1" parent="WIyWlLk6GJQsqaUBKTNV-1" source="Rs4q7yymrEI9bFFTQHx6-0" target="Rs4q7yymrEI9bFFTQHx6-28">
          <mxGeometry width="50" height="50" relative="1" as="geometry">
            <mxPoint x="549" y="700" as="sourcePoint" />
            <mxPoint x="599" y="650" as="targetPoint" />
          </mxGeometry>
        </mxCell>
        <mxCell id="Rs4q7yymrEI9bFFTQHx6-30" value="Antonio Nunes da Rocha" style="swimlane;fontStyle=0;childLayout=stackLayout;horizontal=1;startSize=30;horizontalStack=0;resizeParent=1;resizeParentMax=0;resizeLast=0;collapsible=1;marginBottom=0;" vertex="1" parent="WIyWlLk6GJQsqaUBKTNV-1">
          <mxGeometry x="10" y="170" width="140" height="120" as="geometry" />
        </mxCell>
        <mxCell id="Rs4q7yymrEI9bFFTQHx6-31" value="Item 1" style="text;strokeColor=none;fillColor=none;align=left;verticalAlign=middle;spacingLeft=4;spacingRight=4;overflow=hidden;points=[[0,0.5],[1,0.5]];portConstraint=eastwest;rotatable=0;" vertex="1" parent="Rs4q7yymrEI9bFFTQHx6-30">
          <mxGeometry y="30" width="140" height="30" as="geometry" />
        </mxCell>
        <mxCell id="Rs4q7yymrEI9bFFTQHx6-32" value="Item 2" style="text;strokeColor=none;fillColor=none;align=left;verticalAlign=middle;spacingLeft=4;spacingRight=4;overflow=hidden;points=[[0,0.5],[1,0.5]];portConstraint=eastwest;rotatable=0;" vertex="1" parent="Rs4q7yymrEI9bFFTQHx6-30">
          <mxGeometry y="60" width="140" height="30" as="geometry" />
        </mxCell>
        <mxCell id="Rs4q7yymrEI9bFFTQHx6-33" value="Item 3" style="text;strokeColor=none;fillColor=none;align=left;verticalAlign=middle;spacingLeft=4;spacingRight=4;overflow=hidden;points=[[0,0.5],[1,0.5]];portConstraint=eastwest;rotatable=0;" vertex="1" parent="Rs4q7yymrEI9bFFTQHx6-30">
          <mxGeometry y="90" width="140" height="30" as="geometry" />
        </mxCell>
        <mxCell id="Rs4q7yymrEI9bFFTQHx6-34" value="Maria do Espirito Santo Rocha" style="swimlane;fontStyle=0;childLayout=stackLayout;horizontal=1;startSize=30;horizontalStack=0;resizeParent=1;resizeParentMax=0;resizeLast=0;collapsible=1;marginBottom=0;" vertex="1" parent="WIyWlLk6GJQsqaUBKTNV-1">
          <mxGeometry x="210" y="170" width="200" height="120" as="geometry" />
        </mxCell>
        <mxCell id="Rs4q7yymrEI9bFFTQHx6-35" value="Item 1" style="text;strokeColor=none;fillColor=none;align=left;verticalAlign=middle;spacingLeft=4;spacingRight=4;overflow=hidden;points=[[0,0.5],[1,0.5]];portConstraint=eastwest;rotatable=0;" vertex="1" parent="Rs4q7yymrEI9bFFTQHx6-34">
          <mxGeometry y="30" width="200" height="30" as="geometry" />
        </mxCell>
        <mxCell id="Rs4q7yymrEI9bFFTQHx6-36" value="Item 2" style="text;strokeColor=none;fillColor=none;align=left;verticalAlign=middle;spacingLeft=4;spacingRight=4;overflow=hidden;points=[[0,0.5],[1,0.5]];portConstraint=eastwest;rotatable=0;" vertex="1" parent="Rs4q7yymrEI9bFFTQHx6-34">
          <mxGeometry y="60" width="200" height="30" as="geometry" />
        </mxCell>
        <mxCell id="Rs4q7yymrEI9bFFTQHx6-37" value="Item 3" style="text;strokeColor=none;fillColor=none;align=left;verticalAlign=middle;spacingLeft=4;spacingRight=4;overflow=hidden;points=[[0,0.5],[1,0.5]];portConstraint=eastwest;rotatable=0;" vertex="1" parent="Rs4q7yymrEI9bFFTQHx6-34">
          <mxGeometry y="90" width="200" height="30" as="geometry" />
        </mxCell>
        <mxCell id="Rs4q7yymrEI9bFFTQHx6-38" value="" style="endArrow=none;html=1;rounded=0;exitX=1;exitY=0.125;exitDx=0;exitDy=0;exitPerimeter=0;entryX=0.007;entryY=0.15;entryDx=0;entryDy=0;entryPerimeter=0;" edge="1" parent="WIyWlLk6GJQsqaUBKTNV-1" source="Rs4q7yymrEI9bFFTQHx6-30" target="Rs4q7yymrEI9bFFTQHx6-34">
          <mxGeometry width="50" height="50" relative="1" as="geometry">
            <mxPoint x="150" y="180" as="sourcePoint" />
            <mxPoint x="200" y="130" as="targetPoint" />
          </mxGeometry>
        </mxCell>
        <mxCell id="Rs4q7yymrEI9bFFTQHx6-39" value="" style="endArrow=none;html=1;rounded=0;exitX=0.85;exitY=-0.025;exitDx=0;exitDy=0;exitPerimeter=0;" edge="1" parent="WIyWlLk6GJQsqaUBKTNV-1" source="Rs4q7yymrEI9bFFTQHx6-11">
          <mxGeometry width="50" height="50" relative="1" as="geometry">
            <mxPoint x="150" y="380" as="sourcePoint" />
            <mxPoint x="180" y="190" as="targetPoint" />
          </mxGeometry>
        </mxCell>
        <mxCell id="Rs4q7yymrEI9bFFTQHx6-40" value="" style="endArrow=none;html=1;rounded=0;" edge="1" parent="WIyWlLk6GJQsqaUBKTNV-1">
          <mxGeometry width="50" height="50" relative="1" as="geometry">
            <mxPoint x="145" y="610" as="sourcePoint" />
            <mxPoint x="300" y="400" as="targetPoint" />
          </mxGeometry>
        </mxCell>
        <mxCell id="Rs4q7yymrEI9bFFTQHx6-41" value="Outros filhos" style="swimlane;fontStyle=0;childLayout=stackLayout;horizontal=1;startSize=30;horizontalStack=0;resizeParent=1;resizeParentMax=0;resizeLast=0;collapsible=1;marginBottom=0;" vertex="1" parent="WIyWlLk6GJQsqaUBKTNV-1">
          <mxGeometry x="10" y="610" width="220" height="270" as="geometry" />
        </mxCell>
        <mxCell id="Rs4q7yymrEI9bFFTQHx6-42" value="Augusto Antonio Rocha 13.10.1900" style="text;strokeColor=none;fillColor=none;align=left;verticalAlign=middle;spacingLeft=4;spacingRight=4;overflow=hidden;points=[[0,0.5],[1,0.5]];portConstraint=eastwest;rotatable=0;" vertex="1" parent="Rs4q7yymrEI9bFFTQHx6-41">
          <mxGeometry y="30" width="220" height="30" as="geometry" />
        </mxCell>
        <mxCell id="Rs4q7yymrEI9bFFTQHx6-45" value="Manoel Augusto da Rocha 21.02.1906" style="text;strokeColor=none;fillColor=none;align=left;verticalAlign=middle;spacingLeft=4;spacingRight=4;overflow=hidden;points=[[0,0.5],[1,0.5]];portConstraint=eastwest;rotatable=0;" vertex="1" parent="Rs4q7yymrEI9bFFTQHx6-41">
          <mxGeometry y="60" width="220" height="30" as="geometry" />
        </mxCell>
        <mxCell id="Rs4q7yymrEI9bFFTQHx6-43" value="Altina Rocha 12.03.1913" style="text;strokeColor=none;fillColor=none;align=left;verticalAlign=middle;spacingLeft=4;spacingRight=4;overflow=hidden;points=[[0,0.5],[1,0.5]];portConstraint=eastwest;rotatable=0;" vertex="1" parent="Rs4q7yymrEI9bFFTQHx6-41">
          <mxGeometry y="90" width="220" height="30" as="geometry" />
        </mxCell>
        <mxCell id="Rs4q7yymrEI9bFFTQHx6-44" value="Alvaro da Rocha" style="text;strokeColor=none;fillColor=none;align=left;verticalAlign=middle;spacingLeft=4;spacingRight=4;overflow=hidden;points=[[0,0.5],[1,0.5]];portConstraint=eastwest;rotatable=0;" vertex="1" parent="Rs4q7yymrEI9bFFTQHx6-41">
          <mxGeometry y="120" width="220" height="30" as="geometry" />
        </mxCell>
        <mxCell id="Rs4q7yymrEI9bFFTQHx6-46" value="Jose Rocha" style="text;strokeColor=none;fillColor=none;align=left;verticalAlign=middle;spacingLeft=4;spacingRight=4;overflow=hidden;points=[[0,0.5],[1,0.5]];portConstraint=eastwest;rotatable=0;" vertex="1" parent="Rs4q7yymrEI9bFFTQHx6-41">
          <mxGeometry y="150" width="220" height="30" as="geometry" />
        </mxCell>
        <mxCell id="Rs4q7yymrEI9bFFTQHx6-47" value="Castorina Rocha" style="text;strokeColor=none;fillColor=none;align=left;verticalAlign=middle;spacingLeft=4;spacingRight=4;overflow=hidden;points=[[0,0.5],[1,0.5]];portConstraint=eastwest;rotatable=0;" vertex="1" parent="Rs4q7yymrEI9bFFTQHx6-41">
          <mxGeometry y="180" width="220" height="30" as="geometry" />
        </mxCell>
        <mxCell id="Rs4q7yymrEI9bFFTQHx6-51" value="Almerinda Rocha" style="text;strokeColor=none;fillColor=none;align=left;verticalAlign=middle;spacingLeft=4;spacingRight=4;overflow=hidden;points=[[0,0.5],[1,0.5]];portConstraint=eastwest;rotatable=0;" vertex="1" parent="Rs4q7yymrEI9bFFTQHx6-41">
          <mxGeometry y="210" width="220" height="30" as="geometry" />
        </mxCell>
        <mxCell id="Rs4q7yymrEI9bFFTQHx6-54" value="Dinorah Rocha 16.05.1918 " style="text;strokeColor=none;fillColor=none;align=left;verticalAlign=middle;spacingLeft=4;spacingRight=4;overflow=hidden;points=[[0,0.5],[1,0.5]];portConstraint=eastwest;rotatable=0;" vertex="1" parent="Rs4q7yymrEI9bFFTQHx6-41">
          <mxGeometry y="240" width="220" height="30" as="geometry" />
        </mxCell>
        <mxCell id="Rs4q7yymrEI9bFFTQHx6-49" value="João de Souza Mattos" style="rounded=0;whiteSpace=wrap;html=1;" vertex="1" parent="WIyWlLk6GJQsqaUBKTNV-1">
          <mxGeometry x="380" y="310" width="180" height="30" as="geometry" />
        </mxCell>
        <mxCell id="Rs4q7yymrEI9bFFTQHx6-50" value="Honorina Cabral de Mattos" style="rounded=0;whiteSpace=wrap;html=1;" vertex="1" parent="WIyWlLk6GJQsqaUBKTNV-1">
          <mxGeometry x="640" y="310" width="180" height="30" as="geometry" />
        </mxCell>
        <mxCell id="Rs4q7yymrEI9bFFTQHx6-52" value="" style="endArrow=none;html=1;rounded=0;entryX=0;entryY=0.5;entryDx=0;entryDy=0;" edge="1" parent="WIyWlLk6GJQsqaUBKTNV-1" source="Rs4q7yymrEI9bFFTQHx6-49" target="Rs4q7yymrEI9bFFTQHx6-50">
          <mxGeometry width="50" height="50" relative="1" as="geometry">
            <mxPoint x="560" y="330" as="sourcePoint" />
            <mxPoint x="610" y="280" as="targetPoint" />
          </mxGeometry>
        </mxCell>
        <mxCell id="Rs4q7yymrEI9bFFTQHx6-53" value="" style="endArrow=none;html=1;rounded=0;" edge="1" parent="WIyWlLk6GJQsqaUBKTNV-1">
          <mxGeometry width="50" height="50" relative="1" as="geometry">
            <mxPoint x="590" y="380" as="sourcePoint" />
            <mxPoint x="600" y="330" as="targetPoint" />
          </mxGeometry>
        </mxCell>
      </root>
    </mxGraphModel>
  </diagram>
</mxfile>
